<svg xmlns="http://www.w3.org/2000/svg" viewBox="0 0 545.65 83.63"><defs><style>.cls-1{fill:#3deaa0;}.cls-2{fill:#f2f2f2;}</style></defs><title>Middel 3</title><g id="Laag_2" data-name="Laag 2"><g id="Laag_1-2" data-name="Laag 1"><path class="cls-1" d="M0,81.66,26.08,1.58H39L65.06,81.66h-10l-8-24H18l-8,24ZM20.94,48.73H44.12L32.53,14.09Z"/><path class="cls-1" d="M72.83,81.66V1.58h25q16.33,0,26.08,10.93t9.88,29.11q0,18.18-9.88,29.11T97.86,81.66Zm10-9h15q11.72,0,18.83-8.45t7.11-22.7q0-14.12-7.11-22.57T97.86,10.54h-15Z"/><path class="cls-2" d="M144.48,54.66h10q-1.71,9.09,2.63,14.49t13.43,5.53q9.09,0,15.28-4.08a16.34,16.34,0,0,0,7.64-10.93Q194.53,54,188.87,50q-4.48-3-12.51-4.48-10.8-1.84-17.52-8.17-7.51-6.85-5.8-15.8,1.84-9.75,10.8-15.67T185.44,0q12.64,0,19,7t4,18.57h-10q.13-7.51-4-12.12T183.6,9a26.26,26.26,0,0,0-13.83,3.42,13.33,13.33,0,0,0-6.72,9.22q-1.06,5.66,3.69,10a22.43,22.43,0,0,0,11.33,5q11.85,2.11,19,7.24,8.43,6.06,6.72,14.88a28,28,0,0,1-11.72,18q-9.62,6.85-23.31,6.85t-20.15-7.9Q142,67.83,144.48,54.66Z"/><path class="cls-2" d="M216.52,10.54l1.84-9h60.06l-1.84,9H251.42L237.2,81.66h-10l14.22-71.12Z"/><path class="cls-2" d="M269.86,81.66,285.93,1.58h34.51Q332.16,1.58,338,8t3.82,17a25.42,25.42,0,0,1-5.93,12.13,24.68,24.68,0,0,1-11.06,7.52,17.35,17.35,0,0,1,6.06,17l-2.5,15.52a6.56,6.56,0,0,0,.79,3.68l.26.79h-10a11,11,0,0,1-.79-2.5,4.89,4.89,0,0,1-.13-2.5l2.37-15a9.15,9.15,0,0,0-3.42-9.22A15.25,15.25,0,0,0,307,48.73H286.46l-6.59,32.93ZM288.3,39.78h24.5a19.79,19.79,0,0,0,12.51-4A17.79,17.79,0,0,0,331.77,25q1.31-6.51-2.37-10.5t-10.8-4H294.1Z"/><path class="cls-2" d="M334.53,81.66,376.68,1.58h12.91l10,80.08h-10l-3.29-24h-29l-12.78,24Zm27.53-32.93h23.18l-4.61-34.64Z"/><path class="cls-2" d="M411.71,41.62q3.69-18.83,14.88-30.29T452.93,0a24.44,24.44,0,0,1,18.44,7.9,22.41,22.41,0,0,1,6.32,18.7h-10a14.83,14.83,0,0,0-4.21-12.38A16.4,16.4,0,0,0,451.09,9Q439.63,9,431.46,19.1q-7.11,8.83-9.75,22.52-2.37,12.25,1.71,21.6,4.61,10.41,14.75,10.4a23.94,23.94,0,0,0,15.41-5.27,24.21,24.21,0,0,0,8.56-14.09h10a33.18,33.18,0,0,1-12.25,20.55q-9.75,7.77-23.44,7.77-14.89,0-21.6-11.19T411.71,41.62Z"/><path class="cls-2" d="M483.75,10.54l1.84-9h60.06l-1.84,9H518.65L504.43,81.66h-10l14.22-71.12Z"/></g></g></svg>