<svg xmlns="http://www.w3.org/2000/svg" viewBox="0 0 918 426"><defs><style>.cls-1{fill:#5e5e5e;}.cls-2{fill:#777;}.cls-3,.cls-5{fill:#8b8c8e;}.cls-4{fill:#47c994;}.cls-5{opacity:0.32;}.cls-6{fill:#353535;opacity:0.21;}</style></defs><title>Middel 4</title><g id="Laag_2" data-name="Laag 2"><g id="Laag_1-2" data-name="Laag 1"><rect class="cls-1" x="246" y="-246" width="426" height="918" rx="65.72" ry="65.72" transform="translate(672 -246) rotate(90)"/><rect class="cls-2" x="270" y="-125" width="384" height="672" transform="translate(673 -251) rotate(90)"/><circle class="cls-3" cx="459" cy="211" r="83"/><polygon class="cls-4" points="509.44 211.23 431.89 166.46 431.89 256 509.44 211.23"/><circle class="cls-2" cx="61.5" cy="213.5" r="37.5"/><rect class="cls-2" x="806" y="208" width="73" height="9" rx="4.5" ry="4.5" transform="translate(1055 -630) rotate(90)"/><circle class="cls-2" cx="842.5" cy="152.5" r="6.5" transform="translate(-3.51 284.12) rotate(-19.1)"/><polygon class="cls-5" points="798 19 126 403 798 403 798 19"/><polygon class="cls-6" points="126 19 798 19 126 403 126 19"/></g></g></svg>